<?xml version="1.0" standalone="no"?>
<svg xmlns:xlink="http://www.w3.org/1999/xlink" xmlns="http://www.w3.org/2000/svg" width="1178" height="767"><defs><marker id="modelerCanvasArrow" viewBox="0 -5 10 10" refX="5" refY="0" markerWidth="4" markerHeight="4" orient="auto"><path d="M0,-5L10,0L0,5" class="arrowHead"/></marker></defs><g transform="translate(29.79999999999997,37.69999999999999) scale(0.8)"><g class="grid"/><g id="relationshiptype_Rel54" class="relationshipType"><path class="relationshipLine arrow" d="M601.854,220.663C610.912,204.358,619.97,188.053,629.029,171.748C638.087,155.443,647.145,139.139,656.203,122.834" style="fill: none; stroke: lightgray; stroke-width: 1;" marker-end="url(#modelerCanvasArrow)"/><title class="relationshipTypeTooltip">USES_PHONE</title><text class="displayText" x="630" y="170" text-anchor="middle" baseline-shift="30%" alignment-baseline="alphabetic" font-family="Roboto, sans-serif" font-size="14" style="fill: black;" transform="rotate(-60.94539590092286 630 170)">USES_PHONE</text></g><g id="relationshiptype_Rel69" class="relationshipType"><path class="relationshipLine arrow" d="M550.519,554.568C540.533,580.169,530.547,605.77,512.256,622.028C493.966,638.286,467.37,645.202,440.775,652.117" style="fill: none; stroke: lightgray; stroke-width: 1;" marker-end="url(#modelerCanvasArrow)"/><title class="relationshipTypeTooltip">HAS_STATUS</title><text class="displayText" x="510.761369963435" y="623.3565412088643" text-anchor="middle" baseline-shift="30%" alignment-baseline="alphabetic" font-family="Roboto, sans-serif" font-size="14" style="fill: black;" transform="rotate(-41.63353933657021 510.761369963435 623.3565412088643)">HAS_STATUS</text></g><g id="relationshiptype_Rel53" class="relationshipType"><path class="relationshipLine arrow" d="M535,260C494,260,453,260,412,260C371,260,330,260,289,260" style="fill: none; stroke: lightgray; stroke-width: 1;" marker-end="url(#modelerCanvasArrow)"/><title class="relationshipTypeTooltip">RESIDES_AT</title><text class="displayText" x="410" y="260" text-anchor="middle" baseline-shift="30%" alignment-baseline="alphabetic" font-family="Roboto, sans-serif" font-size="14" style="fill: black;" transform="rotate(0 410 260)">RESIDES_AT</text></g><g id="relationshiptype_Rel68" class="relationshipType"><path class="relationshipLine arrow" d="M580,475C580,447.333,580,419.667,580,392C580,364.333,580,336.667,580,309" style="fill: none; stroke: lightgray; stroke-width: 1;" marker-end="url(#modelerCanvasArrow)"/><title class="relationshipTypeTooltip">ON</title><text class="displayText" x="580" y="390" text-anchor="middle" baseline-shift="30%" alignment-baseline="alphabetic" font-family="Roboto, sans-serif" font-size="14" style="fill: black;" transform="rotate(-90 580 390)">ON</text></g><g id="relationshiptype_Rel64" class="relationshipType"><path class="relationshipLine arrow" d="M366.716,703.284C355.292,717.364,343.867,731.444,333.159,725.751C322.451,720.059,312.459,694.595,315.385,682.841C318.311,671.087,334.156,673.044,350,675" style="fill: none; stroke: lightgray; stroke-width: 1;" marker-end="url(#modelerCanvasArrow)"/><title class="relationshipTypeTooltip">NEXT</title><text class="displayText" x="316.88115653851236" y="707.357884438649" text-anchor="middle" baseline-shift="30%" alignment-baseline="alphabetic" font-family="Roboto, sans-serif" font-size="14" style="fill: black;" transform="rotate(-112.50000000000003 316.88115653851236 707.357884438649)">NEXT</text></g><g id="relationshiptype_Rel58" class="relationshipType"><path class="relationshipLine arrow" d="M900.716,267.409C889.292,281.489,877.867,295.569,867.159,289.876C856.451,284.184,846.459,258.72,849.385,246.966C852.311,235.212,868.156,237.169,884,239.125" style="fill: none; stroke: lightgray; stroke-width: 1;" marker-end="url(#modelerCanvasArrow)"/><title class="relationshipTypeTooltip">TRANSACTED_TO</title><text class="displayText" x="850.8811565385123" y="271.482884438649" text-anchor="middle" baseline-shift="30%" alignment-baseline="alphabetic" font-family="Roboto, sans-serif" font-size="14" style="fill: black;" transform="rotate(-112.49999999999974 850.8811565385123 271.482884438649)">TRANSACTED_TO</text></g><g id="relationshiptype_Rel67" class="relationshipType"><path class="relationshipLine arrow" d="M726.367,650.104C708.076,633.845,689.785,617.587,671.495,601.329C653.204,585.07,634.914,568.812,616.623,552.554" style="fill: none; stroke: lightgray; stroke-width: 1;" marker-end="url(#modelerCanvasArrow)"/><title class="relationshipTypeTooltip">HAS_ALERT</title><text class="displayText" x="670" y="600" text-anchor="middle" baseline-shift="30%" alignment-baseline="alphabetic" font-family="Roboto, sans-serif" font-size="14" style="fill: black;" transform="rotate(41.63353933657021 670 600)">HAS_ALERT</text></g><g id="relationshiptype_Rel57" class="relationshipType"><path class="relationshipLine arrow" d="M546.716,283.284C535.292,297.364,523.867,311.444,513.159,305.751C502.451,300.059,492.459,274.595,495.385,262.841C498.311,251.087,514.156,253.044,530,255" style="fill: none; stroke: lightgray; stroke-width: 1;" marker-end="url(#modelerCanvasArrow)"/><title class="relationshipTypeTooltip">SHARED_IDENTIFIERS</title><text class="displayText" x="496.88115653851236" y="287.357884438649" text-anchor="middle" baseline-shift="30%" alignment-baseline="alphabetic" font-family="Roboto, sans-serif" font-size="14" style="fill: black;" transform="rotate(-112.49999999999977 496.88115653851236 287.357884438649)">SHARED_IDENT...</text></g><g id="relationshiptype_Rel66" class="relationshipType"><path class="relationshipLine arrow" d="M366.716,703.284C332.925,743.386,299.134,783.487,271.318,776.503C243.502,769.518,221.661,715.448,235.77,690.683C249.88,665.918,299.94,670.459,350,675" style="fill: none; stroke: lightgray; stroke-width: 1;" marker-end="url(#modelerCanvasArrow)"/><title class="relationshipTypeTooltip">NEXT_SUPERVISOR</title><text class="displayText" x="231.37127681693443" y="742.7772363362187" text-anchor="middle" baseline-shift="30%" alignment-baseline="alphabetic" font-family="Roboto, sans-serif" font-size="14" style="fill: black;" transform="rotate(-112.50000000000003 231.37127681693443 742.7772363362187)">NEXT_SUPERV...</text></g><g id="relationshiptype_Rel70" class="relationshipType"><path class="relationshipLine arrow" d="M542.214,545.225C515.619,552.141,489.024,559.056,470.733,575.315C452.443,591.573,442.457,617.174,432.471,642.775" style="fill: none; stroke: lightgray; stroke-width: 1;" marker-end="url(#modelerCanvasArrow)"/><title class="relationshipTypeTooltip">HAS_PREVIOUS_STATUS</title><text class="displayText" x="469.238630036565" y="576.6434587911357" text-anchor="middle" baseline-shift="30%" alignment-baseline="alphabetic" font-family="Roboto, sans-serif" font-size="14" style="fill: black;" transform="rotate(-41.63353933657021 469.238630036565 576.6434587911357)">HAS_PREVIOUS_S...</text></g><g id="relationshiptype_Rel52" class="relationshipType"><path class="relationshipLine arrow" d="M624.955,257.984C668.304,256.04,711.653,254.096,755.002,252.152C798.351,250.208,841.7,248.264,885.049,246.32" style="fill: none; stroke: lightgray; stroke-width: 1;" marker-end="url(#modelerCanvasArrow)"/><title class="relationshipTypeTooltip">HAS_ACCOUNT</title><text class="displayText" x="757" y="252.0625" text-anchor="middle" baseline-shift="30%" alignment-baseline="alphabetic" font-family="Roboto, sans-serif" font-size="14" style="fill: black;" transform="rotate(-2.5676878715965454 757 252.0625)">HAS_ACCOUNT</text></g><g id="relationshiptype_Rel65" class="relationshipType"><path class="relationshipLine arrow" d="M366.716,703.284C344.108,730.375,321.501,757.466,302.239,751.127C282.977,744.789,267.06,705.021,275.578,686.762C284.096,668.503,317.048,671.751,350,675" style="fill: none; stroke: lightgray; stroke-width: 1;" marker-end="url(#modelerCanvasArrow)"/><title class="relationshipTypeTooltip">NEXT_ANALYST</title><text class="displayText" x="274.1262166777234" y="725.0675603874339" text-anchor="middle" baseline-shift="30%" alignment-baseline="alphabetic" font-family="Roboto, sans-serif" font-size="14" style="fill: black;" transform="rotate(-112.50000000000003 274.1262166777234 725.0675603874339)">NEXT_ANALYST</text></g><g id="relationshiptype_Rel56" class="relationshipType"><path class="relationshipLine arrow" d="M213,296C202.4,310.133,191.8,324.267,181.2,338.4C170.6,352.533,160,366.667,149.4,380.8" style="fill: none; stroke: lightgray; stroke-width: 1;" marker-end="url(#modelerCanvasArrow)"/><title class="relationshipTypeTooltip">LOCATED_IN</title><text class="displayText" x="180" y="340" text-anchor="middle" baseline-shift="30%" alignment-baseline="alphabetic" font-family="Roboto, sans-serif" font-size="14" style="fill: black;" transform="rotate(-53.13010235415598 180 340)">LOCATED_IN</text></g><g id="relationshiptype_Rel71" class="relationshipType"><path class="relationshipLine arrow" d="M978.584,252.859C1009.916,267.118,1041.247,281.376,1073.271,283.154C1105.295,284.931,1138.012,274.228,1170.729,263.525" style="fill: none; stroke: lightgray; stroke-width: 1;" marker-end="url(#modelerCanvasArrow)"/><title class="relationshipTypeTooltip">SENT</title><text class="displayText" x="1075.2680724737081" y="283.2644699224852" text-anchor="middle" baseline-shift="30%" alignment-baseline="alphabetic" font-family="Roboto, sans-serif" font-size="14" style="fill: black;" transform="rotate(3.1770562446509345 1075.2680724737081 283.2644699224852)">SENT</text></g><g id="relationshiptype_Rel72" class="relationshipType"><path class="relationshipLine arrow" d="M1175.416,251.266C1144.084,237.007,1112.753,222.749,1080.729,220.971C1048.705,219.194,1015.988,229.897,983.271,240.6" style="fill: none; stroke: lightgray; stroke-width: 1;" marker-end="url(#modelerCanvasArrow)"/><title class="relationshipTypeTooltip">RECEIVED</title><text class="displayText" x="1078.7319275262919" y="220.86053007751477" text-anchor="middle" baseline-shift="30%" alignment-baseline="alphabetic" font-family="Roboto, sans-serif" font-size="14" style="fill: black;" transform="rotate(3.1770562446509416 1078.7319275262919 220.86053007751477)">RECEIVED</text></g><g id="relationshiptype_Rel63" class="relationshipType"><path class="relationshipLine arrow" d="M165,420C196,420,227,420,258,420C289,420,320,420,351,420" style="fill: none; stroke: lightgray; stroke-width: 1;" marker-end="url(#modelerCanvasArrow)"/><title class="relationshipTypeTooltip">ASSOCIATED_WITH</title><text class="displayText" x="260" y="420" text-anchor="middle" baseline-shift="30%" alignment-baseline="alphabetic" font-family="Roboto, sans-serif" font-size="14" style="fill: black;" transform="rotate(0 260 420)">ASSOCIATED_WITH</text></g><g id="relationshiptype_Rel55" class="relationshipType"><path class="relationshipLine arrow" d="M555.038,222.558C543.729,205.593,532.419,188.629,521.109,171.664C509.8,154.7,498.49,137.735,487.18,120.77" style="fill: none; stroke: lightgray; stroke-width: 1;" marker-end="url(#modelerCanvasArrow)"/><title class="relationshipTypeTooltip">USES_EMAIL</title><text class="displayText" x="520" y="170" text-anchor="middle" baseline-shift="30%" alignment-baseline="alphabetic" font-family="Roboto, sans-serif" font-size="14" style="fill: black;" transform="rotate(56.3099324740202 520 170)">USES_EMAIL</text></g><g id="nodelabel_Node21" class="nodeLabel"><circle class="hoverCircle" cy="420" cx="120" r="60" style="opacity: 0; fill: lightgray;"/><circle class="displayCircle" cy="420" cx="120" r="40" style="fill: white; stroke: black; stroke-width: 4;"/><text class="displayText" x="120" y="420" pointer-events="none" text-anchor="middle" alignment-baseline="central" font-family="Roboto, sans-serif" font-size="14" style="fill: black;"><tspan x="120" y="420" dy="0.00em">Jurisdic-</tspan><tspan x="120" y="420" dy="1.10em">tion</tspan></text></g><g id="nodelabel_Node38" class="nodeLabel"><circle class="hoverCircle" cy="680" cx="400" r="60" style="opacity: 0; fill: lightgray;"/><circle class="displayCircle" cy="680" cx="400" r="40" style="fill: white; stroke: black; stroke-width: 4;"/><text class="displayText" x="400" y="680" pointer-events="none" text-anchor="middle" alignment-baseline="central" font-family="Roboto, sans-serif" font-size="14" style="fill: black;"><tspan x="400" y="680" dy="0.34em">AlertStatus</tspan></text></g><g id="nodelabel_Node46" class="nodeLabel"><circle class="hoverCircle" cy="520" cx="580" r="60" style="opacity: 0; fill: lightgray;"/><circle class="displayCircle" cy="520" cx="580" r="40" style="fill: white; stroke: black; stroke-width: 4;"/><text class="displayText" x="580" y="520" pointer-events="none" text-anchor="middle" alignment-baseline="central" font-family="Roboto, sans-serif" font-size="14" style="fill: black;"><tspan x="580" y="520" dy="0.34em">Alert</tspan></text></g><g id="nodelabel_Node47" class="nodeLabel"><circle class="hoverCircle" cy="260" cx="1220" r="60" style="opacity: 0; fill: lightgray;"/><circle class="displayCircle" cy="260" cx="1220" r="40" style="fill: white; stroke: black; stroke-width: 4;"/><text class="displayText" x="1220" y="260" pointer-events="none" text-anchor="middle" alignment-baseline="central" font-family="Roboto, sans-serif" font-size="14" style="fill: black;"><tspan x="1220" y="260" dy="0.00em">Transac-</tspan><tspan x="1220" y="260" dy="1.10em">tion</tspan></text></g><g id="nodelabel_Node40" class="nodeLabel"><circle class="hoverCircle" cy="680" cx="760" r="60" style="opacity: 0; fill: lightgray;"/><circle class="displayCircle" cy="680" cx="760" r="40" style="fill: white; stroke: black; stroke-width: 4;"/><text class="displayText" x="760" y="680" pointer-events="none" text-anchor="middle" alignment-baseline="central" font-family="Roboto, sans-serif" font-size="14" style="fill: black;"><tspan x="760" y="680" dy="0.34em">Scenario</tspan></text></g><g id="nodelabel_Node24" class="nodeLabel"><circle class="hoverCircle" cy="420" cx="400" r="60" style="opacity: 0; fill: lightgray;"/><circle class="displayCircle" cy="420" cx="400" r="40" style="fill: white; stroke: black; stroke-width: 4;"/><text class="displayText" x="400" y="420" pointer-events="none" text-anchor="middle" alignment-baseline="central" font-family="Roboto, sans-serif" font-size="14" style="fill: black;"><tspan x="400" y="420" dy="0.34em">Country</tspan></text></g><g id="nodelabel_Node0" class="nodeLabel"><circle class="hoverCircle" cy="260" cx="580" r="60" style="opacity: 0; fill: lightgray;"/><circle class="displayCircle" cy="260" cx="580" r="40" style="fill: white; stroke: black; stroke-width: 4;"/><text class="displayText" x="580" y="260" pointer-events="none" text-anchor="middle" alignment-baseline="central" font-family="Roboto, sans-serif" font-size="14" style="fill: black;"><tspan x="580" y="260" dy="0.34em">Customer</tspan></text></g><g id="nodelabel_Node12" class="nodeLabel"><circle class="hoverCircle" cy="260" cx="240" r="60" style="opacity: 0; fill: lightgray;"/><circle class="displayCircle" cy="260" cx="240" r="40" style="fill: white; stroke: black; stroke-width: 4;"/><text class="displayText" x="240" y="260" pointer-events="none" text-anchor="middle" alignment-baseline="central" font-family="Roboto, sans-serif" font-size="14" style="fill: black;"><tspan x="240" y="260" dy="0.34em">Address</tspan></text></g><g id="nodelabel_Node19" class="nodeLabel"><circle class="hoverCircle" cy="80" cx="460" r="60" style="opacity: 0; fill: lightgray;"/><circle class="displayCircle" cy="80" cx="460" r="40" style="fill: white; stroke: black; stroke-width: 4;"/><text class="displayText" x="460" y="80" pointer-events="none" text-anchor="middle" alignment-baseline="central" font-family="Roboto, sans-serif" font-size="14" style="fill: black;"><tspan x="460" y="80" dy="0.34em">Email</tspan></text></g><g id="nodelabel_Node17" class="nodeLabel"><circle class="hoverCircle" cy="80" cx="680" r="60" style="opacity: 0; fill: lightgray;"/><circle class="displayCircle" cy="80" cx="680" r="40" style="fill: white; stroke: black; stroke-width: 4;"/><text class="displayText" x="680" y="80" pointer-events="none" text-anchor="middle" alignment-baseline="central" font-family="Roboto, sans-serif" font-size="14" style="fill: black;"><tspan x="680" y="80" dy="0.00em">Phone</tspan><tspan x="680" y="80" dy="1.10em">Number</tspan></text></g><g id="nodelabel_Node6" class="nodeLabel"><circle class="hoverCircle" cy="244.125" cx="934" r="60" style="opacity: 0; fill: lightgray;"/><circle class="displayCircle highlightNode" cy="244.125" cx="934" r="40" style="fill: white; stroke: black; stroke-width: 4;"/><text class="displayText" x="934" y="244.125" pointer-events="none" text-anchor="middle" alignment-baseline="central" font-family="Roboto, sans-serif" font-size="14" style="fill: black;"><tspan x="934" y="244.125" dy="0.34em">Account</tspan></text></g></g><text pointer-events="none" font-family="Roboto, sans-serif" font-size="14"><tspan id="modelerCanvas_textDimensionHelper"/></text></svg>